#!OML:ASF H:\Terrain\Patient Classification 1\Animal1\Tuesday\Animal1.ASF
:FULLY-SPECIFIED
:DEGREES
1570
root 7.51255 14.5769 -13.4597 -353.226 -1.72823 -0.370046
lowerback 16.3854 -0.285884 0.104119
upperback 4.40719 -0.300366 1.11788
thorax -4.47883 -0.150301 1.18034
lowerneck -9.72823 0.478332 -3.60806
upperneck -15.1329 1.34819 4.57779
head -3.32457 0.738525 2.14532
rclavicle -7.95139e-015 4.77083e-015
rhumerus -7.14408 12.14 5.93642
rradius 23.1601
rwrist -36.471
rhand -14.7664 2.38739
rfingers 7.12502
rthumb 11.3901 -27.2833
lclavicle -7.95139e-015 4.77083e-015
lhumerus -9.91767 9.62819 3.23509
lradius 20.7394
lwrist -21.784
lhand 11.948 60.1916
lfingers 7.12502
lthumb 36.9715 86.2634
rfemur -39.785 -10.3626 13.9156
rtibia 63.159
rfoot -21.4285 -18.6736
rtoes -17.9716
lfemur -39.9744 12.1937 -13.0889
ltibia 64.2417
lfoot -29.389 1.10759
ltoes -25.6394
1571
root 7.49184 14.5694 -13.4349 -352.888 -1.77374 -0.685671
lowerback 16.1849 -0.316079 0.475299
upperback 3.64087 -0.267369 1.19411
thorax -5.18578 -0.133847 1.04741
lowerneck -10.4889 0.508488 -3.60161
upperneck -14.1841 1.36802 4.45124
head -2.85931 0.761661 2.08947
rclavicle -1.04362e-014 -3.77691e-015
rhumerus -6.82506 12.2849 5.68872
rradius 23.1302
rwrist -35.6909
rhand -14.5543 3.72179
rfingers 7.12502
rthumb 11.5946 -25.9375
lclavicle -1.04362e-014 -3.77691e-015
lhumerus -9.85617 8.48306 3.43943
lradius 20.6643
lwrist -21.1937
lhand 10.9878 60.8922
lfingers 7.12502
lthumb 36.0626 87.1933
rfemur -40.1258 -10.2654 14.4134
rtibia 63.2389
rfoot -21.3781 -18.4342
rtoes -17.1943
lfemur -40.2687 12.241 -12.6833
ltibia 64.2619
lfoot -29.4082 1.30822
ltoes -26.0452
1572
root 7.47254 14.5703 -13.4051 -352.765 -1.73615 -0.849129
lowerback 16.1223 -0.323044 0.791935
upperback 2.91969 -0.213506 1.19947
thorax -5.9208 -0.110829 0.867288
lowerneck -10.8301 0.478137 -3.61601
upperneck -13.5621 1.31259 4.36915
head -2.58331 0.741441 2.05739
rclavicle -3.57812e-015 -6.16232e-015
rhumerus -6.56717 11.0558 5.1881
rradius 22.8924
rwrist -33.8383
rhand -14.2075 4.38386
rfingers 7.12502
rthumb 11.929 -25.2563
lclavicle -3.57812e-015 -6.16232e-015
lhumerus -9.53889 8.19313 3.83298
lradius 20.9411
lwrist -20.5689
lhand 11.1711 62.7283
lfingers 7.12502
lthumb 36.2362 88.9864
rfemur -40.1728 -10.1799 14.6891
rtibia 63.3147
rfoot -21.3616 -18.53
rtoes -16.6589
lfemur -40.2643 12.1054 -12.4033
ltibia 64.2274
lfoot -29.4612 1.56125
ltoes -26.5921
1573
root 7.45756 14.5763 -13.3681 -352.758 -1.66685 -0.642242
lowerback 16.0153 -0.30276 0.768192
upperback 2.29156 -0.18841 1.12001
thorax -6.5332 -0.0984246 0.794894
lowerneck -10.9816 0.445255 -3.85285
upperneck -13.1885 1.29325 4.49066
head -2.4339 0.743541 2.13732
rclavicle -5.66536e-015 -6.95746e-015
rhumerus -6.3259 10.3903 4.69811
rradius 22.7779
rwrist -32.8432
rhand -13.7899 4.65786
rfingers 7.12502
rthumb 12.3317 -24.9585
lclavicle -5.66536e-015 -6.95746e-015
lhumerus -9.34672 7.68344 4.29518
lradius 20.9434
lwrist -20.8084
lhand 11.1466 62.8083
lfingers 7.12502
lthumb 36.2131 89.0721
rfemur -40.0398 -10.294 14.4992
rtibia 63.3904
rfoot -21.6013 -18.695
rtoes -16.3606
lfemur -40.0254 11.7768 -12.5318
ltibia 64.1271
lfoot -29.4895 2.13929
ltoes -27.386
1574
root 7.44254 14.575 -13.3312 -352.694 -1.66838 -0.186499
lowerback 15.76 -0.261059 0.443462
upperback 1.71072 -0.19613 0.970202
thorax -7.01391 -0.0947717 0.823534
lowerneck -11.5138 0.465714 -3.84219
upperneck -12.4703 1.30937 4.40649
head -2.10215 0.759475 2.102
rclavicle -3.97569e-016 -5.56597e-015
rhumerus -6.21678 11.1093 4.30875
rradius 22.8975
rwrist -33.3021
rhand -13.3489 4.75146
rfingers 7.12502
rthumb 12.7569 -24.8388
lclavicle -3.97569e-016 -5.56597e-015
lhumerus -9.17613 7.45822 4.73673
lradius 20.712
lwrist -21.7584
lhand 11.1272 61.9763
lfingers 7.12502
lthumb 36.1947 88.2448
rfemur -39.9817 -10.4274 14.0245
rtibia 63.4729
rfoot -21.8471 -18.3622
rtoes -16.3366
lfemur -39.8479 11.5644 -12.9659
ltibia 64.0196
lfoot -29.5001 2.68616
ltoes -27.9121
1575
root 7.42785 14.5742 -13.2921 -352.466 -1.5201 -0.215772
lowerback 15.2763 -0.320532 0.640636
upperback 1.05325 -0.240203 0.952248
thorax -7.45202 -0.121597 0.703105
lowerneck -12.0076 0.543873 -3.71653
upperneck -11.5768 1.38246 4.27365
head -1.72386 0.798886 2.03212
rclavicle 5.36719e-015 -1.15295e-014
rhumerus -6.15239 11.3057 3.77478
rradius 22.9423
rwrist -33.439
rhand -13.327 4.96837
rfingers 7.12502
rthumb 12.7779 -24.6206
lclavicle 5.36719e-015 -1.15295e-014
lhumerus -9.03126 7.92421 5.22224
lradius 20.5491
lwrist -23.201
lhand 11.5497 62.1148
lfingers 7.12502
lthumb 36.5947 88.283
rfemur -39.9976 -10.642 14.1514
rtibia 63.4921
rfoot -21.7902 -18.5311
rtoes -17.4726
lfemur -39.9382 11.4092 -12.876
ltibia 63.988
lfoot -29.5593 3.01704
ltoes -28.5902
1576
root 7.41375 14.5804 -13.2501 -352.158 -1.21124 -0.468018
lowerback 14.6428 -0.419293 1.07108
upperback 0.371626 -0.29132 1.0445
thorax -7.83283 -0.160246 0.568682
lowerneck -12.1982 0.618686 -3.75059
upperneck -11.0157 1.47587 4.26225
head -1.51232 0.849962 2.03503
rclavicle 9.93923e-017 -2.08724e-014
rhumerus -6.07168 11.0592 3.24044
rradius 22.9618
rwrist -33.4677
rhand -13.3724 4.93282
rfingers 7.12502
rthumb 12.7342 -24.6589
lclavicle 9.93923e-017 -2.08724e-014
lhumerus -8.92533 7.63455 5.79779
lradius 20.5479
lwrist -23.7635
lhand 12.0854 62.9502
lfingers 7.12502
lthumb 37.1014 88.9884
rfemur -40.0646 -10.9609 14.5636
rtibia 63.4708
rfoot -21.8933 -19.0253
rtoes -17.7609
lfemur -40.1478 11.1111 -12.5433
ltibia 64.0069
lfoot -29.6892 3.13333
ltoes -28.8487
